<?xml version="1.0" encoding="UTF-8"?>
<!DOCTYPE svg PUBLIC "-//W3C//DTD SVG 1.1//EN" "http://www.w3.org/Graphics/SVG/1.1/DTD/svg11.dtd">
<!-- Creator: CorelDRAW X6 -->
<svg xmlns="http://www.w3.org/2000/svg" xml:space="preserve" width="7.21185in" height="2.55884in" version="1.1" style="shape-rendering:geometricPrecision; text-rendering:geometricPrecision; image-rendering:optimizeQuality; fill-rule:evenodd; clip-rule:evenodd"
viewBox="0 0 2007 712"
 xmlns:xlink="http://www.w3.org/1999/xlink">
 <defs>
  <style type="text/css">
   <![CDATA[
    .fil0 {fill:black;fill-rule:nonzero}
    .fil1 {fill:#FF1822;fill-rule:nonzero}
   ]]>
  </style>
 </defs>
 <g id="Layer_x0020_1">
  <metadata id="CorelCorpID_0Corel-Layer"/>
  <path class="fil0" d="M102 476c-13,0 -23,-2 -33,-6 -9,-4 -17,-10 -24,-17l0 98 -46 0 0 -172c0,-14 2,-26 6,-38 4,-12 10,-22 19,-31 8,-9 18,-16 30,-21 12,-5 26,-8 42,-8 16,0 30,3 43,8 12,5 23,13 31,21 8,9 14,19 19,31 4,12 6,24 6,37 0,14 -2,27 -7,38 -5,12 -11,22 -19,31 -8,9 -18,16 -29,21 -11,5 -24,8 -37,8zm47 -98c0,-8 -1,-15 -3,-21 -2,-7 -5,-12 -9,-17 -4,-5 -10,-9 -16,-12 -7,-3 -15,-4 -24,-4 -16,0 -28,4 -37,13 -9,9 -14,23 -14,42 0,19 5,33 14,42 9,9 22,13 37,13 9,0 17,-1 24,-4 7,-3 12,-7 16,-12 4,-5 7,-11 9,-17 2,-7 3,-14 3,-21z"/>
  <path class="fil0" d="M262 474l-46 0 0 -95c0,-14 2,-26 7,-38 4,-12 11,-22 19,-31 8,-9 19,-16 31,-21 12,-5 26,-8 42,-8 3,0 6,0 8,1 3,0 6,1 8,1l0 44c-3,-1 -5,-1 -7,-1 -2,0 -5,-1 -7,-1 -10,0 -19,1 -26,4 -7,3 -13,7 -17,11 -4,5 -7,10 -9,17 -2,7 -3,13 -3,21l0 96z"/>
  <path class="fil0" d="M406 474l-46 0 0 -192 46 0 0 192zm-52 -243c0,-8 3,-15 8,-21 5,-6 12,-8 22,-8 9,0 16,3 21,9 5,6 8,13 8,20 0,8 -3,15 -8,21 -5,6 -12,9 -21,9 -9,0 -16,-3 -22,-9 -5,-6 -8,-13 -8,-21z"/>
  <path class="fil0" d="M527 323c-16,0 -28,5 -36,15 -8,10 -12,23 -12,39l0 96 -46 0 0 -96c0,-14 2,-26 6,-38 4,-12 10,-22 18,-31 8,-9 18,-16 29,-21 12,-5 25,-8 40,-8 15,0 28,3 40,8 12,5 21,12 29,21 8,9 14,19 18,31 4,12 6,25 6,38l0 96 -46 0 0 -96c0,-16 -4,-29 -12,-39 -8,-10 -20,-15 -36,-15z"/>
  <path class="fil0" d="M739 433c4,0 7,0 10,-1 3,0 5,-1 8,-1l0 43c-3,1 -6,1 -8,1 -2,0 -6,1 -11,1 -15,0 -28,-3 -40,-8 -12,-5 -22,-12 -30,-21 -8,-9 -15,-19 -19,-31 -4,-12 -7,-25 -7,-38l0 -142 46 0 0 52 59 0 0 43 -59 0 0 46c0,16 4,29 12,39 8,10 21,15 39,15z"/>
  <path class="fil0" d="M875 433c4,0 7,0 10,-1 3,0 5,-1 8,-1l0 43c-3,1 -6,1 -8,1 -2,0 -6,1 -11,1 -15,0 -28,-3 -40,-8 -12,-5 -22,-12 -30,-21 -8,-9 -15,-19 -19,-31 -4,-12 -7,-25 -7,-38l0 -142 46 0 0 52 59 0 0 43 -59 0 0 46c0,16 4,29 12,39 8,10 21,15 39,15z"/>
  <path class="fil0" d="M1011 433c4,0 7,0 10,-1 3,0 5,-1 8,-1l0 43c-3,1 -6,1 -8,1 -2,0 -6,1 -11,1 -15,0 -28,-3 -40,-8 -12,-5 -22,-12 -30,-21 -8,-9 -15,-19 -19,-31 -4,-12 -7,-25 -7,-38l0 -142 46 0 0 52 59 0 0 43 -59 0 0 46c0,16 4,29 12,39 8,10 21,15 39,15z"/>
  <path class="fil0" d="M1138 358c9,2 19,4 27,6 9,2 17,5 24,9 7,4 12,9 16,16 4,7 6,15 6,25 0,11 -2,20 -7,28 -5,8 -11,14 -19,19 -8,5 -17,9 -28,11 -11,2 -22,4 -35,4 -5,0 -11,0 -17,-1 -6,0 -13,-1 -19,-2 -7,-1 -13,-2 -20,-3 -6,-1 -12,-2 -18,-3l0 -43c4,1 10,2 16,3 6,1 13,2 20,2 7,1 14,1 21,2 7,0 13,1 19,1 15,0 26,-1 33,-4 7,-2 10,-6 10,-12 0,-2 -1,-3 -2,-5 -1,-1 -3,-3 -7,-4 -3,-1 -8,-3 -15,-4 -6,-1 -15,-3 -25,-5 -5,-1 -11,-2 -19,-4 -8,-2 -15,-4 -22,-8 -7,-4 -14,-10 -19,-17 -5,-7 -8,-17 -8,-29 0,-10 2,-19 6,-27 4,-8 10,-14 17,-19 7,-5 16,-9 26,-11 10,-2 21,-4 33,-4 5,0 10,0 16,1 6,0 12,1 18,2 6,1 12,2 18,3 6,1 12,2 17,3l0 43c-4,-1 -8,-2 -14,-3 -6,-1 -12,-2 -19,-2 -7,-1 -13,-1 -20,-2 -7,0 -13,-1 -18,-1 -14,0 -23,1 -28,4 -5,3 -8,6 -8,11 0,3 1,5 2,6 1,2 4,3 7,5 3,1 8,3 13,4 6,1 13,3 21,4z"/>
  <path class="fil0" d="M1233 447c0,-8 3,-15 8,-21 5,-6 12,-9 22,-9 9,0 16,3 21,9 5,6 8,13 8,21 0,8 -3,15 -8,20 -5,6 -12,9 -21,9 -9,0 -16,-3 -22,-8 -5,-6 -8,-13 -8,-21z"/>
  <path class="fil0" d="M1358 378c0,8 1,15 3,21 2,7 5,12 9,17 4,5 10,9 17,11 7,3 16,4 26,4 10,0 21,-1 31,-3 10,-2 19,-5 25,-8l0 47c-8,3 -17,5 -28,6 -10,1 -21,2 -31,2 -16,0 -30,-3 -42,-8 -12,-5 -23,-12 -31,-21 -8,-9 -15,-19 -19,-31 -4,-12 -7,-25 -7,-38 0,-14 2,-26 7,-38 4,-12 11,-22 19,-31 8,-9 19,-16 31,-21 12,-5 26,-8 42,-8 10,0 21,1 31,2 10,1 20,4 28,6l0 47c-7,-4 -15,-6 -25,-8 -10,-2 -21,-3 -31,-3 -10,0 -19,1 -26,4 -7,3 -13,7 -17,11 -4,5 -7,10 -9,17 -2,7 -3,13 -3,21z"/>
  <path class="fil0" d="M1537 378c0,8 1,15 3,21 2,7 5,12 9,17 4,5 10,9 16,12 7,3 14,4 24,4 9,0 17,-1 24,-4 7,-3 12,-7 16,-12 4,-5 7,-11 9,-17 2,-7 3,-14 3,-21 0,-8 -1,-15 -3,-21 -2,-7 -5,-12 -9,-17 -4,-5 -10,-9 -16,-12 -7,-3 -14,-4 -24,-4 -9,0 -17,1 -24,4 -7,3 -12,7 -16,12 -4,5 -7,11 -9,17 -2,7 -3,14 -3,21zm-46 0c0,-14 2,-26 7,-38 4,-12 11,-22 19,-31 8,-9 19,-16 31,-21 12,-5 26,-8 41,-8 15,0 29,3 41,8 12,5 22,12 31,21 8,9 15,19 19,31 4,12 7,25 7,38 0,14 -2,26 -7,38 -4,12 -11,22 -19,31 -8,9 -19,16 -31,21 -12,5 -26,8 -41,8 -15,0 -29,-3 -41,-8 -12,-5 -22,-12 -31,-21 -8,-9 -15,-19 -19,-31 -4,-12 -7,-25 -7,-38z"/>
  <path class="fil0" d="M1794 280c15,0 28,4 38,11 11,7 19,16 25,28 6,-12 14,-21 25,-28 11,-7 23,-11 38,-11 14,0 26,2 37,7 11,5 20,11 27,19 7,8 13,18 17,29 4,11 6,23 6,35l0 103 -46 0 0 -103c0,-14 -3,-25 -10,-34 -7,-9 -17,-13 -30,-13 -14,0 -24,4 -30,13 -7,9 -10,20 -10,34l0 103 -46 0 0 -103c0,-14 -3,-25 -10,-34 -7,-9 -17,-13 -30,-13 -14,0 -24,4 -30,13 -7,9 -10,20 -10,34l0 103 -46 0 0 -103c0,-13 2,-24 6,-35 4,-11 9,-20 17,-29 7,-8 16,-15 27,-19 11,-5 23,-7 37,-7z"/>
  <path class="fil1" d="M590 0l477 0c12,0 24,2 35,7 11,5 21,11 30,20 8,8 15,18 20,30 4,11 7,22 7,35l0 86 0 8 -8 0 -41 0 -8 0 0 -8 0 -86 0 0c0,-5 -1,-9 -3,-13 -2,-4 -4,-8 -8,-11 -3,-3 -7,-6 -11,-8 -4,-2 -9,-3 -13,-3l0 0 -477 0 0 0c-5,0 -9,1 -13,3 -4,2 -8,4 -11,8l-2 2c-3,3 -5,6 -6,10 -2,4 -3,9 -3,13l0 86 0 8 -8 0 -41 0 -8 0 0 -8 0 -86c0,-12 2,-24 7,-35 5,-11 11,-21 20,-29l0 0c8,-8 18,-15 30,-20 11,-4 22,-7 35,-7zm568 535l0 86c0,12 -2,24 -7,35 -5,11 -11,21 -20,30 -8,8 -18,15 -30,20 -11,4 -22,7 -35,7l-477 0c-12,0 -24,-2 -35,-7 -11,-5 -21,-11 -30,-20l-2 -2 0 0c-7,-8 -13,-17 -18,-27 -4,-11 -7,-22 -7,-35l0 -86 0 -8 8 0 41 0 8 0 0 8 0 86 0 0c0,5 1,9 3,13 2,4 4,7 6,10l1 1c3,3 7,6 11,8 4,2 9,3 13,3l0 0 477 0 0 0c5,0 9,-1 13,-3 4,-2 8,-4 11,-8l0 0c3,-3 6,-7 8,-11 2,-4 3,-9 3,-13l0 -86 0 -8 8 0 41 0 8 0 0 8z"/>
 </g>
</svg>
